<mxfile host="app.diagrams.net" modified="2024-02-01T12:41:06.936Z" agent="Mozilla/5.0 (Macintosh; Intel Mac OS X 10_15_7) AppleWebKit/537.36 (KHTML, like Gecko) Chrome/120.0.0.0 Safari/537.36" etag="Cz7kwQlX3D_2GG-BS1Fq" version="23.1.0" type="device">
  <diagram name="Pagina-1" id="f4zkFb2z-CY6dIyXknJI">
    <mxGraphModel dx="1811" dy="1795" grid="1" gridSize="10" guides="1" tooltips="1" connect="1" arrows="1" fold="1" page="1" pageScale="1" pageWidth="827" pageHeight="1169" math="0" shadow="0">
      <root>
        <mxCell id="0" />
        <mxCell id="1" parent="0" />
        <mxCell id="tVbI3gfU0XHVPR_MIGNM-10" value="" style="rounded=1;whiteSpace=wrap;html=1;movable=1;resizable=1;rotatable=1;deletable=1;editable=1;locked=0;connectable=1;fillColor=#fff2cc;strokeColor=#d6b656;strokeWidth=4;" parent="1" vertex="1">
          <mxGeometry x="34" y="-390" width="760" height="410" as="geometry" />
        </mxCell>
        <mxCell id="tVbI3gfU0XHVPR_MIGNM-13" value="" style="ellipse;whiteSpace=wrap;html=1;aspect=fixed;strokeWidth=5;" parent="1" vertex="1">
          <mxGeometry width="10" as="geometry" />
        </mxCell>
        <mxCell id="tVbI3gfU0XHVPR_MIGNM-20" value="" style="group" parent="1" vertex="1" connectable="0">
          <mxGeometry x="630" y="-190" width="40" height="40" as="geometry" />
        </mxCell>
        <mxCell id="tVbI3gfU0XHVPR_MIGNM-21" value="" style="ellipse;whiteSpace=wrap;html=1;aspect=fixed;fillColor=#dae8fc;strokeColor=#000000;container=0;strokeWidth=3;movable=0;resizable=0;rotatable=0;deletable=0;editable=0;locked=1;connectable=0;" parent="tVbI3gfU0XHVPR_MIGNM-20" vertex="1">
          <mxGeometry width="40" height="40" as="geometry" />
        </mxCell>
        <mxCell id="tVbI3gfU0XHVPR_MIGNM-22" value="" style="ellipse;whiteSpace=wrap;html=1;aspect=fixed;strokeWidth=3;fillColor=none;container=0;" parent="tVbI3gfU0XHVPR_MIGNM-20" vertex="1">
          <mxGeometry x="10" y="10" width="20" height="20" as="geometry" />
        </mxCell>
        <mxCell id="tVbI3gfU0XHVPR_MIGNM-23" value="" style="ellipse;whiteSpace=wrap;html=1;aspect=fixed;fillColor=#000000;strokeWidth=3;container=0;" parent="tVbI3gfU0XHVPR_MIGNM-20" vertex="1">
          <mxGeometry x="17.083333333333336" y="16.663333333333334" width="6.666666666666668" height="6.666666666666668" as="geometry" />
        </mxCell>
        <mxCell id="tVbI3gfU0XHVPR_MIGNM-45" style="edgeStyle=orthogonalEdgeStyle;rounded=0;orthogonalLoop=1;jettySize=auto;html=1;exitX=0.5;exitY=1;exitDx=0;exitDy=0;startArrow=classic;startFill=1;endArrow=none;endFill=0;strokeWidth=3;" parent="1" source="tVbI3gfU0XHVPR_MIGNM-28" edge="1">
          <mxGeometry relative="1" as="geometry">
            <mxPoint x="519.8823529411766" y="-150" as="targetPoint" />
          </mxGeometry>
        </mxCell>
        <mxCell id="tVbI3gfU0XHVPR_MIGNM-46" style="edgeStyle=orthogonalEdgeStyle;rounded=0;orthogonalLoop=1;jettySize=auto;html=1;exitX=1;exitY=0.5;exitDx=0;exitDy=0;strokeWidth=3;" parent="1" source="tVbI3gfU0XHVPR_MIGNM-28" edge="1">
          <mxGeometry relative="1" as="geometry">
            <mxPoint x="860" y="-330.46153846153857" as="targetPoint" />
          </mxGeometry>
        </mxCell>
        <mxCell id="tVbI3gfU0XHVPR_MIGNM-56" style="edgeStyle=orthogonalEdgeStyle;rounded=1;orthogonalLoop=1;jettySize=auto;html=1;entryX=0.5;entryY=0;entryDx=0;entryDy=0;strokeWidth=3;elbow=vertical;curved=0;" parent="1" source="tVbI3gfU0XHVPR_MIGNM-28" target="tVbI3gfU0XHVPR_MIGNM-55" edge="1">
          <mxGeometry relative="1" as="geometry" />
        </mxCell>
        <mxCell id="tVbI3gfU0XHVPR_MIGNM-28" value="&lt;font style=&quot;font-size: 25px;&quot;&gt;&lt;b&gt;+&lt;/b&gt;&lt;/font&gt;" style="ellipse;whiteSpace=wrap;html=1;aspect=fixed;fillColor=#dae8fc;strokeColor=#000000;strokeWidth=3;" parent="1" vertex="1">
          <mxGeometry x="500" y="-350" width="40" height="40" as="geometry" />
        </mxCell>
        <mxCell id="tVbI3gfU0XHVPR_MIGNM-29" value="" style="group" parent="1" vertex="1" connectable="0">
          <mxGeometry x="160" y="-350" width="40" height="40" as="geometry" />
        </mxCell>
        <mxCell id="tVbI3gfU0XHVPR_MIGNM-33" style="edgeStyle=orthogonalEdgeStyle;rounded=0;orthogonalLoop=1;jettySize=auto;html=1;exitX=0;exitY=1;exitDx=0;exitDy=0;" parent="tVbI3gfU0XHVPR_MIGNM-29" source="tVbI3gfU0XHVPR_MIGNM-30" edge="1">
          <mxGeometry relative="1" as="geometry">
            <mxPoint x="20" y="40.00000000000023" as="targetPoint" />
          </mxGeometry>
        </mxCell>
        <mxCell id="tVbI3gfU0XHVPR_MIGNM-30" value="" style="ellipse;whiteSpace=wrap;html=1;aspect=fixed;fillColor=#dae8fc;strokeColor=#000000;container=0;strokeWidth=3;" parent="tVbI3gfU0XHVPR_MIGNM-29" vertex="1">
          <mxGeometry width="40" height="40" as="geometry" />
        </mxCell>
        <mxCell id="tVbI3gfU0XHVPR_MIGNM-31" value="" style="ellipse;whiteSpace=wrap;html=1;aspect=fixed;strokeWidth=3;fillColor=none;container=0;" parent="tVbI3gfU0XHVPR_MIGNM-29" vertex="1">
          <mxGeometry x="10.83" y="10.83" width="19.17" height="19.17" as="geometry" />
        </mxCell>
        <mxCell id="tVbI3gfU0XHVPR_MIGNM-32" value="" style="ellipse;whiteSpace=wrap;html=1;aspect=fixed;fillColor=#000000;strokeWidth=3;container=0;" parent="tVbI3gfU0XHVPR_MIGNM-29" vertex="1">
          <mxGeometry x="17.083333333333336" y="16.663333333333334" width="6.666666666666668" height="6.666666666666668" as="geometry" />
        </mxCell>
        <mxCell id="tVbI3gfU0XHVPR_MIGNM-34" style="edgeStyle=orthogonalEdgeStyle;rounded=0;orthogonalLoop=1;jettySize=auto;html=1;exitX=1;exitY=0.5;exitDx=0;exitDy=0;entryX=0;entryY=0.5;entryDx=0;entryDy=0;strokeWidth=3;" parent="1" source="tVbI3gfU0XHVPR_MIGNM-30" target="tVbI3gfU0XHVPR_MIGNM-28" edge="1">
          <mxGeometry relative="1" as="geometry" />
        </mxCell>
        <mxCell id="tVbI3gfU0XHVPR_MIGNM-36" style="edgeStyle=orthogonalEdgeStyle;rounded=0;orthogonalLoop=1;jettySize=auto;html=1;entryX=0;entryY=0.5;entryDx=0;entryDy=0;strokeWidth=3;" parent="1" source="tVbI3gfU0XHVPR_MIGNM-35" target="tVbI3gfU0XHVPR_MIGNM-30" edge="1">
          <mxGeometry relative="1" as="geometry" />
        </mxCell>
        <mxCell id="tVbI3gfU0XHVPR_MIGNM-35" value="&lt;font style=&quot;font-size: 24px;&quot;&gt;Memory&lt;/font&gt;" style="text;html=1;align=center;verticalAlign=middle;resizable=0;points=[];autosize=1;strokeColor=none;fillColor=none;strokeWidth=7;" parent="1" vertex="1">
          <mxGeometry x="-110" y="-350" width="110" height="40" as="geometry" />
        </mxCell>
        <mxCell id="tVbI3gfU0XHVPR_MIGNM-37" value="&lt;font style=&quot;font-size: 24px;&quot;&gt;&lt;b&gt;C&lt;/b&gt;&lt;/font&gt;" style="text;html=1;align=center;verticalAlign=middle;resizable=0;points=[];autosize=1;strokeColor=none;fillColor=none;" parent="1" vertex="1">
          <mxGeometry x="-90" y="-320" width="40" height="40" as="geometry" />
        </mxCell>
        <mxCell id="tVbI3gfU0XHVPR_MIGNM-38" value="&lt;font style=&quot;font-size: 18px;&quot;&gt;t-1&lt;/font&gt;" style="text;html=1;align=center;verticalAlign=middle;resizable=0;points=[];autosize=1;strokeColor=none;fillColor=none;" parent="1" vertex="1">
          <mxGeometry x="-70" y="-312" width="40" height="40" as="geometry" />
        </mxCell>
        <mxCell id="tVbI3gfU0XHVPR_MIGNM-41" value="" style="group" parent="1" vertex="1" connectable="0">
          <mxGeometry x="500" y="-190" width="40" height="40" as="geometry" />
        </mxCell>
        <mxCell id="tVbI3gfU0XHVPR_MIGNM-42" value="" style="ellipse;whiteSpace=wrap;html=1;aspect=fixed;fillColor=#dae8fc;strokeColor=#000000;container=0;strokeWidth=3;movable=0;resizable=0;rotatable=0;deletable=0;editable=0;locked=1;connectable=0;" parent="tVbI3gfU0XHVPR_MIGNM-41" vertex="1">
          <mxGeometry width="40" height="40" as="geometry" />
        </mxCell>
        <mxCell id="tVbI3gfU0XHVPR_MIGNM-43" value="" style="ellipse;whiteSpace=wrap;html=1;aspect=fixed;strokeWidth=3;fillColor=none;container=0;" parent="tVbI3gfU0XHVPR_MIGNM-41" vertex="1">
          <mxGeometry x="10" y="10" width="20" height="20" as="geometry" />
        </mxCell>
        <mxCell id="tVbI3gfU0XHVPR_MIGNM-44" value="" style="ellipse;whiteSpace=wrap;html=1;aspect=fixed;fillColor=#000000;strokeWidth=3;container=0;" parent="tVbI3gfU0XHVPR_MIGNM-41" vertex="1">
          <mxGeometry x="17.083333333333336" y="16.663333333333334" width="5.333333333333335" height="5.333333333333335" as="geometry" />
        </mxCell>
        <mxCell id="tVbI3gfU0XHVPR_MIGNM-47" value="&lt;font style=&quot;font-size: 24px;&quot;&gt;&lt;b&gt;C&lt;/b&gt;&lt;/font&gt;" style="text;html=1;align=center;verticalAlign=middle;resizable=0;points=[];autosize=1;strokeColor=none;fillColor=none;" parent="1" vertex="1">
          <mxGeometry x="860" y="-347" width="40" height="40" as="geometry" />
        </mxCell>
        <mxCell id="tVbI3gfU0XHVPR_MIGNM-48" value="&lt;font style=&quot;font-size: 18px;&quot;&gt;t&lt;/font&gt;" style="text;html=1;align=center;verticalAlign=middle;resizable=0;points=[];autosize=1;strokeColor=none;fillColor=none;" parent="1" vertex="1">
          <mxGeometry x="880" y="-342" width="30" height="40" as="geometry" />
        </mxCell>
        <mxCell id="tVbI3gfU0XHVPR_MIGNM-50" style="edgeStyle=orthogonalEdgeStyle;rounded=0;orthogonalLoop=1;jettySize=auto;html=1;entryX=0.5;entryY=1;entryDx=0;entryDy=0;strokeWidth=3;" parent="1" source="tVbI3gfU0XHVPR_MIGNM-49" target="tVbI3gfU0XHVPR_MIGNM-30" edge="1">
          <mxGeometry relative="1" as="geometry" />
        </mxCell>
        <mxCell id="tVbI3gfU0XHVPR_MIGNM-49" value="Ïƒ" style="rounded=0;whiteSpace=wrap;html=1;fillColor=#1ba1e2;fontColor=#000000;strokeColor=#000000;strokeWidth=3;fontSize=24;fontStyle=0" parent="1" vertex="1">
          <mxGeometry x="147.5" y="-80" width="65" height="40" as="geometry" />
        </mxCell>
        <mxCell id="tVbI3gfU0XHVPR_MIGNM-62" style="edgeStyle=orthogonalEdgeStyle;rounded=1;orthogonalLoop=1;jettySize=auto;html=1;exitX=0.5;exitY=0;exitDx=0;exitDy=0;curved=0;strokeWidth=3;" parent="1" source="tVbI3gfU0XHVPR_MIGNM-51" edge="1">
          <mxGeometry relative="1" as="geometry">
            <mxPoint x="500" y="-170" as="targetPoint" />
            <Array as="points">
              <mxPoint x="362" y="-170" />
            </Array>
          </mxGeometry>
        </mxCell>
        <mxCell id="tVbI3gfU0XHVPR_MIGNM-51" value="Ïƒ" style="rounded=0;whiteSpace=wrap;html=1;fillColor=#1ba1e2;fontColor=#000000;strokeColor=#000000;strokeWidth=3;fontSize=24;fontStyle=0" parent="1" vertex="1">
          <mxGeometry x="330" y="-80" width="65" height="40" as="geometry" />
        </mxCell>
        <mxCell id="tVbI3gfU0XHVPR_MIGNM-63" style="edgeStyle=orthogonalEdgeStyle;rounded=0;orthogonalLoop=1;jettySize=auto;html=1;exitX=0.5;exitY=0;exitDx=0;exitDy=0;strokeWidth=3;" parent="1" source="tVbI3gfU0XHVPR_MIGNM-52" edge="1">
          <mxGeometry relative="1" as="geometry">
            <mxPoint x="519.608695652174" y="-150" as="targetPoint" />
          </mxGeometry>
        </mxCell>
        <mxCell id="tVbI3gfU0XHVPR_MIGNM-52" value="tanh" style="rounded=0;whiteSpace=wrap;html=1;fillColor=#1ba1e2;fontColor=#000000;strokeColor=#000000;strokeWidth=3;fontSize=24;fontStyle=0" parent="1" vertex="1">
          <mxGeometry x="487.5" y="-80" width="65" height="40" as="geometry" />
        </mxCell>
        <mxCell id="tVbI3gfU0XHVPR_MIGNM-64" style="edgeStyle=orthogonalEdgeStyle;rounded=0;orthogonalLoop=1;jettySize=auto;html=1;exitX=0.5;exitY=0;exitDx=0;exitDy=0;strokeWidth=3;" parent="1" source="tVbI3gfU0XHVPR_MIGNM-53" edge="1">
          <mxGeometry relative="1" as="geometry">
            <mxPoint x="650.04347826087" y="-150" as="targetPoint" />
          </mxGeometry>
        </mxCell>
        <mxCell id="tVbI3gfU0XHVPR_MIGNM-53" value="Ïƒ" style="rounded=0;whiteSpace=wrap;html=1;fillColor=#1ba1e2;fontColor=#000000;strokeColor=#000000;strokeWidth=3;fontSize=24;fontStyle=0" parent="1" vertex="1">
          <mxGeometry x="617.5" y="-80" width="65" height="40" as="geometry" />
        </mxCell>
        <mxCell id="tVbI3gfU0XHVPR_MIGNM-57" style="edgeStyle=orthogonalEdgeStyle;rounded=0;orthogonalLoop=1;jettySize=auto;html=1;exitX=0.5;exitY=1;exitDx=0;exitDy=0;strokeWidth=3;" parent="1" source="tVbI3gfU0XHVPR_MIGNM-55" edge="1">
          <mxGeometry relative="1" as="geometry">
            <mxPoint x="650.3333333333335" y="-190" as="targetPoint" />
          </mxGeometry>
        </mxCell>
        <mxCell id="tVbI3gfU0XHVPR_MIGNM-55" value="tanh" style="rounded=1;whiteSpace=wrap;html=1;fillColor=#dae8fc;strokeColor=#6c8ebf;strokeWidth=3;fontSize=24;fontStyle=0" parent="1" vertex="1">
          <mxGeometry x="617.5" y="-280" width="65" height="40" as="geometry" />
        </mxCell>
        <mxCell id="tVbI3gfU0XHVPR_MIGNM-60" value="&lt;font style=&quot;font-size: 24px;&quot;&gt;&lt;b&gt;H&lt;/b&gt;&lt;/font&gt;" style="text;html=1;align=center;verticalAlign=middle;resizable=0;points=[];autosize=1;strokeColor=none;fillColor=none;" parent="1" vertex="1">
          <mxGeometry x="860" y="-57" width="40" height="40" as="geometry" />
        </mxCell>
        <mxCell id="tVbI3gfU0XHVPR_MIGNM-58" style="edgeStyle=orthogonalEdgeStyle;rounded=1;orthogonalLoop=1;jettySize=auto;html=1;entryX=0.025;entryY=0.592;entryDx=0;entryDy=0;entryPerimeter=0;strokeWidth=3;curved=0;" parent="1" target="tVbI3gfU0XHVPR_MIGNM-60" edge="1">
          <mxGeometry relative="1" as="geometry">
            <mxPoint x="860" y="-40" as="targetPoint" />
            <mxPoint x="670" y="-170" as="sourcePoint" />
          </mxGeometry>
        </mxCell>
        <mxCell id="tVbI3gfU0XHVPR_MIGNM-61" value="&lt;font style=&quot;font-size: 18px;&quot;&gt;t&lt;/font&gt;" style="text;html=1;align=center;verticalAlign=middle;resizable=0;points=[];autosize=1;strokeColor=none;fillColor=none;" parent="1" vertex="1">
          <mxGeometry x="880" y="-50" width="30" height="40" as="geometry" />
        </mxCell>
        <mxCell id="tVbI3gfU0XHVPR_MIGNM-67" style="edgeStyle=orthogonalEdgeStyle;rounded=1;orthogonalLoop=1;jettySize=auto;html=1;entryX=0.5;entryY=1;entryDx=0;entryDy=0;strokeWidth=3;curved=0;" parent="1" source="tVbI3gfU0XHVPR_MIGNM-65" target="tVbI3gfU0XHVPR_MIGNM-49" edge="1">
          <mxGeometry relative="1" as="geometry" />
        </mxCell>
        <mxCell id="tVbI3gfU0XHVPR_MIGNM-68" value="" style="group" parent="1" vertex="1" connectable="0">
          <mxGeometry x="50" y="50" width="110" height="47" as="geometry" />
        </mxCell>
        <mxCell id="tVbI3gfU0XHVPR_MIGNM-65" value="&lt;font style=&quot;font-size: 24px;&quot;&gt;Input &lt;b&gt;X&lt;/b&gt;&lt;/font&gt;" style="text;html=1;align=center;verticalAlign=middle;resizable=0;points=[];autosize=1;strokeColor=none;fillColor=none;" parent="tVbI3gfU0XHVPR_MIGNM-68" vertex="1">
          <mxGeometry width="100" height="40" as="geometry" />
        </mxCell>
        <mxCell id="tVbI3gfU0XHVPR_MIGNM-66" value="&lt;font style=&quot;font-size: 18px;&quot;&gt;t&lt;/font&gt;" style="text;html=1;align=center;verticalAlign=middle;resizable=0;points=[];autosize=1;strokeColor=none;fillColor=none;" parent="tVbI3gfU0XHVPR_MIGNM-68" vertex="1">
          <mxGeometry x="80" y="7" width="30" height="40" as="geometry" />
        </mxCell>
        <mxCell id="tVbI3gfU0XHVPR_MIGNM-73" style="edgeStyle=orthogonalEdgeStyle;rounded=1;orthogonalLoop=1;jettySize=auto;html=1;entryX=0.5;entryY=1;entryDx=0;entryDy=0;strokeWidth=3;curved=0;" parent="1" source="tVbI3gfU0XHVPR_MIGNM-69" target="tVbI3gfU0XHVPR_MIGNM-53" edge="1">
          <mxGeometry relative="1" as="geometry">
            <mxPoint x="530" as="targetPoint" />
          </mxGeometry>
        </mxCell>
        <mxCell id="tVbI3gfU0XHVPR_MIGNM-74" style="edgeStyle=orthogonalEdgeStyle;rounded=1;orthogonalLoop=1;jettySize=auto;html=1;entryX=0.5;entryY=1;entryDx=0;entryDy=0;strokeWidth=3;curved=0;" parent="1" source="tVbI3gfU0XHVPR_MIGNM-69" target="tVbI3gfU0XHVPR_MIGNM-51" edge="1">
          <mxGeometry relative="1" as="geometry" />
        </mxCell>
        <mxCell id="tVbI3gfU0XHVPR_MIGNM-75" style="edgeStyle=orthogonalEdgeStyle;rounded=1;orthogonalLoop=1;jettySize=auto;html=1;entryX=0.5;entryY=1;entryDx=0;entryDy=0;strokeWidth=3;curved=0;" parent="1" source="tVbI3gfU0XHVPR_MIGNM-69" target="tVbI3gfU0XHVPR_MIGNM-52" edge="1">
          <mxGeometry relative="1" as="geometry" />
        </mxCell>
        <mxCell id="tVbI3gfU0XHVPR_MIGNM-69" value="&lt;font style=&quot;font-size: 24px;&quot;&gt;Hiddent State&lt;br&gt;&lt;b style=&quot;&quot;&gt;H&lt;/b&gt;&lt;br&gt;&lt;/font&gt;" style="text;html=1;align=center;verticalAlign=middle;resizable=0;points=[];autosize=1;strokeColor=none;fillColor=none;" parent="1" vertex="1">
          <mxGeometry x="-170" y="-30" width="170" height="70" as="geometry" />
        </mxCell>
        <mxCell id="tVbI3gfU0XHVPR_MIGNM-70" value="&lt;font style=&quot;font-size: 18px;&quot;&gt;t-1&lt;/font&gt;" style="text;html=1;align=center;verticalAlign=middle;resizable=0;points=[];autosize=1;strokeColor=none;fillColor=none;" parent="1" vertex="1">
          <mxGeometry x="-80" y="10" width="40" height="40" as="geometry" />
        </mxCell>
        <mxCell id="tVbI3gfU0XHVPR_MIGNM-76" value="&lt;font style=&quot;font-size: 24px;&quot;&gt;Forget&lt;br&gt;gate&lt;br&gt;&lt;b&gt;F&lt;/b&gt;&lt;br&gt;&lt;/font&gt;" style="text;html=1;strokeColor=none;fillColor=none;align=center;verticalAlign=middle;whiteSpace=wrap;rounded=0;" parent="1" vertex="1">
          <mxGeometry x="75" y="-120" width="60" height="30" as="geometry" />
        </mxCell>
        <mxCell id="tVbI3gfU0XHVPR_MIGNM-77" value="&lt;font style=&quot;font-size: 24px;&quot;&gt;Input&lt;br&gt;gate&lt;br&gt;&lt;b&gt;I&lt;/b&gt;&lt;br&gt;&lt;/font&gt;" style="text;html=1;strokeColor=none;fillColor=none;align=center;verticalAlign=middle;whiteSpace=wrap;rounded=0;" parent="1" vertex="1">
          <mxGeometry x="270" y="-120" width="60" height="30" as="geometry" />
        </mxCell>
        <mxCell id="tVbI3gfU0XHVPR_MIGNM-78" value="&lt;font style=&quot;font-size: 24px;&quot;&gt;Candidate&lt;br&gt;memory&lt;br&gt;&lt;/font&gt;" style="text;html=1;strokeColor=none;fillColor=none;align=center;verticalAlign=middle;whiteSpace=wrap;rounded=0;" parent="1" vertex="1">
          <mxGeometry x="427.5" y="-130" width="60" height="30" as="geometry" />
        </mxCell>
        <mxCell id="tVbI3gfU0XHVPR_MIGNM-79" value="&lt;font style=&quot;font-size: 24px;&quot;&gt;Output&lt;br&gt;gate&lt;br&gt;&lt;b&gt;O&lt;/b&gt;&lt;br&gt;&lt;/font&gt;" style="text;html=1;strokeColor=none;fillColor=none;align=center;verticalAlign=middle;whiteSpace=wrap;rounded=0;" parent="1" vertex="1">
          <mxGeometry x="560" y="-100" width="60" height="30" as="geometry" />
        </mxCell>
        <mxCell id="tVbI3gfU0XHVPR_MIGNM-83" value="&lt;font style=&quot;font-size: 24px;&quot;&gt;&amp;nbsp;&lt;font style=&quot;font-size: 24px;&quot;&gt;&lt;b style=&quot;&quot;&gt;~&lt;/b&gt;&lt;/font&gt;&lt;/font&gt;" style="text;html=1;align=center;verticalAlign=middle;resizable=0;points=[];autosize=1;strokeColor=none;fillColor=none;" parent="1" vertex="1">
          <mxGeometry x="427.5" y="-100" width="40" height="40" as="geometry" />
        </mxCell>
        <mxCell id="tVbI3gfU0XHVPR_MIGNM-84" value="&lt;font style=&quot;font-size: 24px;&quot;&gt;&lt;b&gt;C&lt;/b&gt;&lt;/font&gt;" style="text;html=1;align=center;verticalAlign=middle;resizable=0;points=[];autosize=1;strokeColor=none;fillColor=none;" parent="1" vertex="1">
          <mxGeometry x="427.5" y="-80" width="40" height="40" as="geometry" />
        </mxCell>
        <mxCell id="tVbI3gfU0XHVPR_MIGNM-85" value="&lt;font style=&quot;font-size: 18px;&quot;&gt;t&lt;br&gt;&lt;/font&gt;" style="text;html=1;align=center;verticalAlign=middle;resizable=0;points=[];autosize=1;strokeColor=none;fillColor=none;" parent="1" vertex="1">
          <mxGeometry x="100" y="-90" width="30" height="40" as="geometry" />
        </mxCell>
        <mxCell id="tVbI3gfU0XHVPR_MIGNM-86" value="&lt;font style=&quot;font-size: 18px;&quot;&gt;t&lt;br&gt;&lt;/font&gt;" style="text;html=1;align=center;verticalAlign=middle;resizable=0;points=[];autosize=1;strokeColor=none;fillColor=none;" parent="1" vertex="1">
          <mxGeometry x="290" y="-90" width="30" height="40" as="geometry" />
        </mxCell>
        <mxCell id="tVbI3gfU0XHVPR_MIGNM-87" value="&lt;font style=&quot;font-size: 18px;&quot;&gt;t&lt;br&gt;&lt;/font&gt;" style="text;html=1;align=center;verticalAlign=middle;resizable=0;points=[];autosize=1;strokeColor=none;fillColor=none;" parent="1" vertex="1">
          <mxGeometry x="442.5" y="-70" width="30" height="40" as="geometry" />
        </mxCell>
        <mxCell id="tVbI3gfU0XHVPR_MIGNM-88" value="&lt;font style=&quot;font-size: 18px;&quot;&gt;t&lt;br&gt;&lt;/font&gt;" style="text;html=1;align=center;verticalAlign=middle;resizable=0;points=[];autosize=1;strokeColor=none;fillColor=none;" parent="1" vertex="1">
          <mxGeometry x="587.5" y="-70" width="30" height="40" as="geometry" />
        </mxCell>
      </root>
    </mxGraphModel>
  </diagram>
</mxfile>
